<?xml version="1.0" encoding="utf-8"?>
<!-- Svg Vector Icons : http://www.onlinewebfonts.com/icon -->
<!DOCTYPE svg PUBLIC "-//W3C//DTD SVG 1.1//EN" "http://www.w3.org/Graphics/SVG/1.1/DTD/svg11.dtd">
<svg version="1.1" xmlns="http://www.w3.org/2000/svg" xmlns:xlink="http://www.w3.org/1999/xlink" x="0px" y="0px" viewBox="0 0 1000 1000" enable-background="new 0 0 1000 1000" xml:space="preserve">
<metadata> Svg Vector Icons : http://www.onlinewebfonts.com/icon </metadata>
<g><path d="M696.4,564.1L650.9,531c-16.5-12.4-33.1-28.9-33.1-57.9c0-28.9,20.7-53.8,41.4-66.2c53.8-41.3,107.5-86.8,107.5-177.8c0-86.8-53.8-136.5-82.7-161.3h70.3L803.9,10H547.6c-181.9,0-272.9,115.8-272.9,239.8c0,95.1,74.4,198.5,206.8,198.5h33.1c-4.1,12.4-16.5,33.1-16.5,53.8c0,41.3,16.5,57.9,37.2,82.7c-57.9,4.1-165.4,16.5-244,66.2c-74.4,45.5-95.1,107.5-95.1,153C196.1,899,282.9,990,469,990c223.3,0,330.8-124.1,330.8-244C799.8,659.2,754.3,613.7,696.4,564.1L696.4,564.1z M382.2,187.8c0-91,53.8-132.3,111.6-132.3c107.5,0,165.4,144.7,165.4,227.4c0,107.5-86.8,128.2-119.9,128.2C435.9,411.1,382.2,282.9,382.2,187.8L382.2,187.8z M531,932.1c-136.5,0-223.3-62-223.3-153c0-91,82.7-119.9,107.5-132.3c53.8-16.5,124.1-20.7,136.5-20.7h28.9c99.2,70.3,140.6,99.2,140.6,165.4C721.2,870.1,642.7,932.1,531,932.1L531,932.1z"/></g>
</svg>