<?xml version="1.0" encoding="utf-8"?>
<!-- Svg Vector Icons : http://www.onlinewebfonts.com/icon -->
<!DOCTYPE svg PUBLIC "-//W3C//DTD SVG 1.1//EN" "http://www.w3.org/Graphics/SVG/1.1/DTD/svg11.dtd">
<svg version="1.1" xmlns="http://www.w3.org/2000/svg" xmlns:xlink="http://www.w3.org/1999/xlink" x="0px" y="0px" viewBox="0 0 1000 1000" enable-background="new 0 0 1000 1000" xml:space="preserve">
<metadata> Svg Vector Icons : http://www.onlinewebfonts.com/icon </metadata>
<g><path d="M943.4,236.5v566.9H56.6V239.3l387.2,371l0.6,0.6l0.6,0.6c15.9,14.2,39.4,20.7,54.4,20.7c15.5,0,38.4-6.5,54.5-21l0.6-0.5l0.6-0.5L943.4,236.5 M955,150H45c-9,0-17.9,3.4-24.8,10.2C13.4,167.1,10,176.1,10,185v630c0,8.9,3.4,17.9,10.2,24.7C27.1,846.6,36.1,850,45,850h910c8.9,0,17.9-3.4,24.7-10.2c6.8-6.8,10.2-15.8,10.2-24.7V185c0-9-3.4-17.9-10.2-24.8C972.9,153.4,964,150,955,150L955,150z M499.5,585.4c-5.1,0-17.2-3.3-23.4-8.8L78.8,195.9h839.4L522.9,576.4C516.7,581.9,505.7,585.4,499.5,585.4L499.5,585.4z"/></g>
</svg>