<?xml version="1.0" encoding="utf-8"?>
<!-- Svg Vector Icons : http://www.onlinewebfonts.com/icon -->
<!DOCTYPE svg PUBLIC "-//W3C//DTD SVG 1.1//EN" "http://www.w3.org/Graphics/SVG/1.1/DTD/svg11.dtd">
<svg version="1.1" xmlns="http://www.w3.org/2000/svg" xmlns:xlink="http://www.w3.org/1999/xlink" x="0px" y="0px" viewBox="0 0 1000 1000" enable-background="new 0 0 1000 1000" xml:space="preserve">
<metadata> Svg Vector Icons : http://www.onlinewebfonts.com/icon </metadata>
<g><g transform="translate(0.000000,512.000000) scale(0.100000,-0.100000)"><path d="M4779.9,5015.9c-1525.1-134.1-2726.4-1302.8-2893-2814.5c-51.7-467.5,21.1-1005.9,191.6-1440.8c78.6-195.4,111.1-260.6,1120.8-2209.1c471.3-912,1042.3-2015.6,1268.3-2452.4c226.1-436.8,433-814.3,457.9-839.2c61.3-53.6,88.1-53.6,149.4,1.9c36.4,32.6,2130.5,4046.4,2676.6,5128.9c206.9,411.9,300.8,703.1,352.5,1105.5c214.6,1641.9-950.3,3203.4-2596.1,3481.2C5320.2,5008.2,4933.2,5029.3,4779.9,5015.9z M5425.6,4728.5c1239.6-183.9,2191.8-1117,2404.5-2354.7c32.6-195.4,36.4-283.5,28.7-574.8c-11.5-377.4-32.6-509.6-141.8-837.3c-67.1-201.2-170.5-406.2-2276.1-4473.7l-438.7-846.8l-69,128.4C4737.8-3874,2406.1,649.5,2352.4,774c-164.8,385.1-226.1,733.8-210.8,1216.6c15.3,488.6,101.6,831.5,310.4,1231.9c425.3,814.3,1195.5,1366.1,2107.5,1505.9C4795.2,4764.9,5184.2,4764.9,5425.6,4728.5z"/><path d="M4540.4,4222.7C3511.6,4011.9,2745.2,3167,2632.2,2120.9c-24.9-237.6-15.3-293.1,47.9-293.1c53.7,0,69,30.7,69,143.7c0,268.2,92,620.8,237.6,919.6c352.5,714.6,1009.7,1161,1825.9,1239.6c197.3,19.2,237.6,28.7,247.1,57.5c5.7,19.2,3.8,42.1-1.9,53.6C5038.6,4272.5,4728.2,4261,4540.4,4222.7z"/><path d="M4745.4,3063.6c-212.7-46-396.6-151.4-580.5-335.3c-136-134.1-180.1-191.6-243.3-325.7c-92-193.5-118.8-312.3-118.8-523c0-321.9,113-586.3,354.4-829.6c297-300.8,684-425.3,1072.9-342.9c438.7,92,827.7,465.6,938.8,900.5c34.5,132.2,38.3,387,7.7,530.7c-11.5,55.6-55.6,174.3-97.7,264.4c-103.5,218.4-337.2,454.1-553.7,561.4C5276.1,3086.5,5007.9,3119.1,4745.4,3063.6z M5297.2,2785.7c433-126.5,705.1-569,636.1-1040.3c-49.8-341-258.7-609.3-580.5-745.3c-90-36.4-137.9-42.1-352.5-42.1c-214.6,0-262.5,5.7-352.5,42.1c-442.6,185.8-676.3,643.8-567.1,1111.2c92,388.9,394.7,662.9,785.5,710.8C5013.7,2841.3,5142,2829.8,5297.2,2785.7z"/></g></g>
</svg>